<svg width="228" height="476" viewBox="0 0 228 476" fill="none" xmlns="http://www.w3.org/2000/svg">
<path d="M88.635 88.5581C88.35 265.107 82.65 269.932 0 269.932C86.355 269.932 88.635 275.325 88.635 476C88.635 275.041 90.915 269.932 177.27 269.932C94.05 269.932 88.92 264.823 88.635 84.5844" fill="url(#paint0_linear_474_574)"/>
<path d="M176.985 32.9255C176.985 134.54 173.565 137.379 125.97 137.379C175.845 137.379 176.985 140.501 176.985 256.308C176.985 140.501 178.41 137.379 228 137.379C180.12 137.379 176.985 134.54 176.985 30.6547" fill="url(#paint1_linear_474_574)"/>
<path d="M42.465 1.13536C42.465 55.9165 40.47 57.6196 14.82 57.6196C41.61 57.6196 42.465 59.3226 42.465 121.767C42.465 59.3226 43.035 57.6196 70.11 57.6196C44.175 57.6196 42.75 56.2004 42.465 0" fill="url(#paint2_linear_474_574)"/>
<defs>
<linearGradient id="paint0_linear_474_574" x1="114" y1="0" x2="114" y2="476" gradientUnits="userSpaceOnUse">
<stop stop-color="#2475B0"/>
<stop offset="0.5" stop-color="#B8C5E9"/>
<stop offset="1" stop-color="#F9F7FD"/>
</linearGradient>
<linearGradient id="paint1_linear_474_574" x1="114" y1="0" x2="114" y2="476" gradientUnits="userSpaceOnUse">
<stop stop-color="#2475B0"/>
<stop offset="0.5" stop-color="#B8C5E9"/>
<stop offset="1" stop-color="#F9F7FD"/>
</linearGradient>
<linearGradient id="paint2_linear_474_574" x1="114" y1="0" x2="114" y2="476" gradientUnits="userSpaceOnUse">
<stop stop-color="#2475B0"/>
<stop offset="0.5" stop-color="#B8C5E9"/>
<stop offset="1" stop-color="#F9F7FD"/>
</linearGradient>
</defs>
</svg>
